<?xml version="1.0" encoding="UTF-8"?>
<svg xmlns="http://www.w3.org/2000/svg" xmlns:xlink="http://www.w3.org/1999/xlink" width="56px" height="54px" viewBox="0 0 56 54" version="1.1">
<g id="surface1">
<path style=" stroke:none;fill-rule:nonzero;fill:rgb(0%,0%,0%);fill-opacity:1;" d="M 16.910156 2.496094 C 17.144531 2.339844 17.351562 2.0625 17.667969 2.140625 C 17.507812 2.5 17.140625 2.695312 16.957031 3.035156 C 16.023438 5.480469 14.300781 5.554688 14.210938 6.699219 C 14.917969 6.285156 15.574219 5.777344 16.304688 5.394531 C 16.539062 5.285156 16.734375 5.109375 16.882812 4.894531 C 18.53125 2.652344 21.242188 2.191406 23.945312 2.851562 C 24.09375 2.867188 24.140625 3 24.175781 3.125 C 23.753906 3.183594 23.328125 3.164062 22.910156 3.226562 C 21.234375 3.71875 20.785156 5.9375 18.074219 5.5 C 17.691406 5.511719 17.320312 5.402344 16.941406 5.410156 C 16.128906 5.8125 14.480469 6.847656 14.097656 7.25 C 14.371094 7.394531 14.683594 7.351562 14.980469 7.335938 C 15.445312 7.28125 15.816406 6.976562 16.21875 6.773438 C 17.558594 6.074219 17.644531 6.257812 19.4375 6.480469 C 20.082031 6.609375 20.738281 6.5 21.390625 6.53125 C 21.375 6.574219 21.351562 6.652344 21.339844 6.695312 C 20.972656 6.824219 20.585938 6.839844 20.207031 6.902344 C 19.449219 7.1875 18.800781 7.734375 18.007812 7.925781 C 16.457031 7.960938 14.917969 7.71875 13.371094 7.777344 C 12.320312 8.632812 11.3125 9.550781 10.445312 10.597656 C 11.082031 11.003906 12.199219 9.765625 12.714844 9.4375 C 13.160156 9.109375 13.710938 8.976562 14.253906 8.964844 C 17.015625 8.722656 15.535156 8.917969 17.242188 8.546875 C 17.242188 8.601562 17.238281 8.707031 17.238281 8.761719 C 16.902344 8.925781 16.53125 9 16.195312 9.160156 C 15.570312 9.5 14.675781 10.53125 14.066406 10.609375 C 9.53125 11.308594 10.070312 11.085938 9.792969 11.390625 C 8.910156 12.472656 7.804688 14.195312 7.683594 14.621094 C 8.59375 14.605469 9.191406 13.027344 10.070312 12.574219 C 11.175781 11.957031 11.667969 12.289062 13.804688 11.238281 C 13.808594 11.289062 13.824219 11.394531 13.828125 11.445312 C 13.496094 11.753906 13.027344 11.863281 12.71875 12.203125 C 12.003906 12.988281 11.664062 13.648438 11.019531 13.90625 C 7.039062 15.351562 7.34375 15.136719 7.144531 15.582031 C 6.632812 16.71875 6.128906 17.875 5.84375 19.089844 C 6.535156 19.117188 6.90625 17.480469 7.683594 16.683594 C 8.492188 15.984375 9.570312 15.742188 10.433594 15.125 C 10.695312 14.945312 10.941406 14.746094 11.203125 14.566406 C 11.207031 14.671875 11.257812 14.800781 11.160156 14.882812 C 10.910156 15.171875 10.550781 15.355469 10.335938 15.683594 C 9.902344 16.332031 9.671875 17.128906 9.085938 17.671875 C 7.992188 18.378906 5.851562 19.648438 5.59375 19.964844 C 5.332031 21.039062 5.183594 22.140625 5.050781 23.238281 C 5.582031 23.171875 5.65625 21.625 6.34375 20.703125 C 7.003906 19.957031 7.949219 19.5625 8.675781 18.894531 C 8.859375 18.722656 8.871094 18.421875 9.109375 18.296875 C 9.136719 18.671875 8.835938 18.949219 8.765625 19.300781 C 8.277344 21.621094 7.78125 21.449219 5.6875 23.46875 C 5.472656 23.683594 5.207031 23.851562 5.03125 24.105469 C 4.972656 24.8125 5 26.984375 5.1875 27.816406 L 5.320312 27.816406 C 5.476562 27.546875 5.613281 27.246094 5.605469 26.929688 C 5.617188 24.683594 6.046875 24.933594 7.683594 23.109375 C 7.929688 22.894531 8.007812 22.566406 8.082031 22.265625 C 8.117188 22.253906 8.183594 22.230469 8.21875 22.21875 C 8.261719 22.582031 8.039062 22.898438 8.039062 23.257812 C 7.921875 25.609375 7.640625 24.703125 5.292969 28.480469 C 5.433594 29.695312 5.769531 30.882812 6.144531 32.042969 C 6.171875 32.191406 6.410156 32.109375 6.40625 31.980469 C 6.535156 31.355469 6.386719 30.726562 6.328125 30.105469 C 6.308594 29.886719 6.203125 29.664062 6.289062 29.449219 C 6.570312 28.421875 7.355469 27.644531 7.78125 26.6875 C 7.890625 26.476562 7.746094 26.144531 7.972656 26.015625 C 8.296875 30.167969 8.34375 27.59375 6.566406 32.503906 C 6.527344 32.640625 6.445312 32.78125 6.484375 32.925781 C 6.898438 34.078125 7.484375 35.160156 8.074219 36.230469 C 8.105469 36.238281 8.171875 36.257812 8.203125 36.269531 C 8.238281 35.910156 8.273438 35.527344 8.121094 35.1875 C 7.222656 33.101562 7.773438 33.140625 8.539062 30.625 C 8.621094 30.320312 8.5 30.007812 8.570312 29.699219 C 8.6875 29.871094 8.78125 30.0625 8.785156 30.273438 C 8.832031 30.988281 9.679688 32.554688 9.277344 33.503906 C 8.886719 34.566406 8.695312 35.683594 8.441406 36.78125 C 9.328125 38.207031 10.695312 39.863281 11.058594 40.109375 C 11.148438 39.199219 9.976562 38.148438 9.945312 37.183594 C 9.96875 36.28125 10.214844 35.394531 10.269531 34.492188 C 10.308594 34.207031 10.15625 33.949219 10.125 33.671875 C 10.503906 33.847656 10.457031 34.355469 10.660156 34.667969 C 11.976562 36.632812 11.640625 38.207031 11.449219 40.253906 C 11.449219 40.367188 11.382812 40.511719 11.492188 40.597656 C 11.824219 40.929688 14.027344 43.035156 14.46875 43.023438 C 14.476562 42.25 13.382812 41.316406 12.910156 40.652344 C 12.441406 39.761719 12.664062 38.726562 12.523438 37.773438 C 12.503906 37.464844 12.238281 37.238281 12.226562 36.925781 C 12.585938 37.1875 12.6875 37.648438 13.007812 37.949219 C 13.605469 38.542969 14.023438 39.296875 14.359375 40.070312 C 14.566406 40.742188 14.59375 41.449219 14.703125 42.140625 C 14.796875 43.648438 14.878906 43.378906 15.304688 43.710938 C 16.195312 44.265625 17.109375 44.8125 18.074219 45.230469 C 18.046875 45.125 18.070312 45 17.992188 44.914062 C 17.535156 44.375 16.863281 44.101562 16.347656 43.632812 C 15.726562 42.78125 15.417969 40.808594 15.164062 40.191406 C 15.046875 39.984375 14.867188 39.820312 14.75 39.609375 C 15.050781 39.636719 15.199219 39.921875 15.390625 40.117188 C 15.609375 40.382812 16.726562 41.046875 17.355469 42.207031 C 17.929688 43.492188 18.359375 45.40625 18.851562 45.601562 C 20.027344 46.101562 21.238281 46.515625 22.480469 46.820312 C 22.492188 46.769531 22.515625 46.671875 22.527344 46.621094 C 22.214844 46.125 21.238281 45.820312 20.339844 45.3125 C 19.355469 44.761719 19.417969 43.792969 18.703125 42.742188 C 18.503906 42.414062 18.058594 42.308594 17.933594 41.925781 C 18.375 41.988281 18.695312 42.332031 19.074219 42.535156 C 19.5 42.796875 19.984375 42.953125 20.394531 43.242188 C 21.679688 44.292969 22.207031 46 23.503906 47.03125 C 24.03125 47.167969 26.140625 47.492188 26.519531 47.425781 C 26.511719 46.796875 25.152344 46.8125 24.160156 46.21875 C 23.300781 45.648438 23.128906 44.433594 22.191406 43.953125 C 22.046875 43.875 21.921875 43.765625 21.835938 43.625 C 22.246094 43.660156 22.613281 43.871094 23.003906 43.976562 C 23.5625 44.1875 24.191406 44.210938 24.695312 44.550781 C 25.8125 45.300781 26.324219 46.644531 27.398438 47.445312 C 27.578125 47.53125 27.792969 47.480469 27.988281 47.496094 C 28.222656 47.476562 28.496094 47.550781 28.695312 47.390625 C 29.050781 47.15625 29.269531 46.777344 29.5625 46.484375 C 31.597656 43.855469 31.507812 44.519531 32.992188 43.984375 C 33.378906 43.851562 33.757812 43.667969 34.171875 43.625 C 34.015625 43.929688 33.640625 43.996094 33.410156 44.230469 C 32.835938 44.8125 32.589844 45.660156 31.925781 46.164062 C 31.285156 46.613281 30.472656 46.675781 29.785156 47.019531 C 29.628906 47.082031 29.542969 47.234375 29.453125 47.367188 C 29.640625 47.515625 29.875 47.40625 30.085938 47.40625 C 32.777344 47.078125 32.464844 47.082031 32.828125 46.742188 C 33.8125 45.773438 34.367188 44.460938 35.339844 43.480469 C 35.777344 43.039062 36.390625 42.867188 36.910156 42.546875 C 37.285156 42.332031 37.621094 42.035156 38.039062 41.902344 C 38.039062 41.957031 38.03125 42.058594 38.03125 42.113281 C 37.714844 42.363281 37.363281 42.601562 37.167969 42.96875 C 36.824219 43.519531 36.675781 44.171875 36.320312 44.714844 C 35.71875 45.683594 33.640625 45.941406 33.449219 46.753906 C 34.148438 46.816406 36.617188 45.839844 37.304688 45.539062 C 38.332031 44.089844 37.964844 41.976562 40.402344 40.339844 C 40.71875 40.132812 40.839844 39.660156 41.25 39.605469 C 41.136719 39.875 40.863281 40.046875 40.792969 40.332031 C 40.25 42.378906 40.09375 42.992188 39.6875 43.609375 C 39.191406 44.066406 38.539062 44.339844 38.078125 44.84375 C 37.992188 44.941406 37.96875 45.078125 37.933594 45.199219 C 38.914062 44.855469 40.957031 43.613281 41.152344 43.351562 C 41.273438 42.964844 41.34375 41.5 41.546875 40.484375 C 41.683594 39.820312 42.050781 39.238281 42.410156 38.675781 C 42.671875 38.242188 43.105469 37.941406 43.34375 37.492188 C 43.445312 37.285156 43.574219 37.089844 43.753906 36.9375 C 43.765625 36.976562 43.792969 37.054688 43.808594 37.097656 C 43.171875 37.921875 43.679688 38.320312 43.308594 40.089844 C 43.25 40.410156 43.109375 40.714844 42.882812 40.953125 C 41.535156 42.425781 41.597656 42.5625 41.566406 43.035156 C 42.113281 42.863281 43.890625 41.253906 44.605469 40.519531 C 44.496094 40.03125 44.53125 39.53125 44.445312 39.039062 C 44.34375 37.574219 44.214844 37.128906 44.925781 35.421875 C 45.085938 35.003906 45.417969 34.671875 45.535156 34.234375 C 45.625 34.03125 45.628906 33.710938 45.902344 33.667969 C 45.398438 34.820312 46.363281 36.664062 45.964844 37.710938 C 45.640625 38.5 44.996094 39.175781 44.9375 40.058594 C 45.371094 39.914062 46.964844 37.75 47.53125 36.847656 C 47.554688 36.324219 47.035156 34.511719 46.988281 34.28125 C 46.75 33.179688 46.4375 33.554688 46.773438 31.894531 C 46.925781 31.136719 47.089844 31.367188 47.304688 29.835938 C 47.34375 29.820312 47.425781 29.792969 47.464844 29.777344 C 47.46875 30.046875 47.390625 30.316406 47.457031 30.582031 C 47.730469 31.46875 48.148438 32.3125 48.328125 33.226562 C 48.460938 34.023438 48.042969 34.75 47.789062 35.472656 C 47.773438 35.742188 47.710938 36.058594 47.878906 36.292969 C 48.523438 35.25 49.058594 34.140625 49.511719 33.003906 C 49.609375 32.824219 49.488281 32.636719 49.4375 32.464844 C 49.042969 31.441406 48.671875 30.40625 48.160156 29.433594 C 47.523438 28.4375 48.101562 27.53125 48.011719 26.078125 C 48.054688 26.070312 48.136719 26.058594 48.175781 26.050781 C 48.179688 26.230469 48.175781 26.414062 48.199219 26.59375 C 48.613281 27.65625 49.546875 28.476562 49.75 29.625 C 49.6875 30.203125 49.285156 32.34375 49.847656 32.101562 C 49.988281 31.675781 50.914062 28.707031 50.640625 28.347656 C 48.375 24.816406 48.289062 25.503906 48.054688 24.191406 C 47.96875 23.820312 48.039062 23.433594 47.945312 23.0625 C 47.894531 22.769531 47.726562 22.457031 47.882812 22.167969 C 47.996094 22.46875 48.035156 22.8125 48.265625 23.050781 C 48.730469 23.5625 49.253906 24.019531 49.714844 24.53125 C 50.921875 26.015625 50.050781 26.753906 50.652344 27.738281 C 50.6875 27.828125 50.75 27.851562 50.839844 27.808594 C 50.957031 27.242188 51.078125 25.160156 50.984375 24.097656 C 48.402344 21.441406 47.839844 21.96875 47.261719 19.355469 C 47.175781 18.988281 46.914062 18.679688 46.902344 18.289062 C 47.148438 18.449219 47.171875 18.78125 47.402344 18.957031 C 48.152344 19.621094 49.132812 20.015625 49.753906 20.828125 C 50.371094 21.773438 50.417969 23.097656 50.921875 23.160156 C 50.925781 22.15625 50.433594 20.019531 50.425781 19.941406 C 49.285156 19.097656 48.042969 18.410156 46.867188 17.621094 C 46.308594 17.050781 46.082031 16.253906 45.625 15.613281 C 45.347656 15.300781 44.988281 15.066406 44.738281 14.726562 C 44.785156 14.679688 44.832031 14.636719 44.875 14.589844 C 46.734375 16.132812 48.046875 15.949219 48.761719 17.265625 C 49.035156 17.652344 49.644531 19.199219 50.171875 19.085938 C 49.832031 17.769531 49.324219 16.496094 48.703125 15.292969 C 47.613281 14.789062 46.449219 14.449219 45.324219 14.027344 C 45.050781 13.914062 44.730469 13.859375 44.519531 13.628906 C 44.0625 13.160156 43.683594 12.625 43.234375 12.148438 C 42.957031 11.859375 42.554688 11.753906 42.242188 11.511719 C 42.152344 11.453125 42.171875 11.328125 42.148438 11.238281 C 42.625 11.375 43.027344 11.703125 43.515625 11.8125 C 44.3125 12.070312 45.179688 12.148438 45.925781 12.558594 C 46.933594 13.109375 47.355469 14.566406 48.328125 14.613281 C 47.785156 13.460938 47.019531 12.425781 46.253906 11.414062 C 46.046875 11.050781 44.527344 11.03125 41.914062 10.601562 C 41.417969 10.519531 40.578125 9.714844 40.058594 9.304688 C 39.722656 9.042969 39.285156 9.003906 38.910156 8.820312 C 38.796875 8.78125 38.757812 8.65625 38.714844 8.558594 C 39.203125 8.585938 39.65625 8.828125 40.148438 8.835938 C 40.847656 8.929688 41.554688 8.925781 42.25 9.007812 C 43.714844 9.207031 44.105469 10.695312 45.511719 10.691406 C 45.511719 10.492188 45.363281 10.355469 45.242188 10.214844 C 44.410156 9.359375 43.578125 8.480469 42.613281 7.769531 C 41.003906 7.742188 38.230469 8.046875 37.828125 7.886719 C 37.253906 7.679688 36.734375 7.351562 36.191406 7.074219 C 35.742188 6.78125 35.175781 6.882812 34.683594 6.710938 C 34.679688 6.660156 34.671875 6.558594 34.664062 6.511719 C 37.355469 6.617188 37.582031 6.15625 38.679688 6.316406 C 40.039062 6.632812 40.660156 7.707031 41.890625 7.253906 C 41.433594 6.75 39.714844 5.742188 39.113281 5.414062 C 38.726562 5.347656 37.195312 5.808594 35.957031 5.273438 C 34.996094 4.816406 34.410156 3.84375 33.46875 3.363281 C 32.953125 3.085938 32.351562 3.261719 31.804688 3.097656 C 32.078125 2.6875 32.644531 2.78125 33.0625 2.660156 C 38.285156 2.273438 38.722656 4.867188 39.574219 5.320312 C 40.207031 5.683594 40.835938 6.058594 41.429688 6.480469 C 41.546875 6.566406 41.675781 6.636719 41.8125 6.6875 C 41.65625 5.585938 40 5.355469 39.167969 3.296875 C 38.878906 2.554688 38.410156 2.527344 38.382812 2.121094 C 38.691406 2.097656 38.894531 2.359375 39.125 2.515625 C 39.523438 2.835938 40.046875 2.925781 40.464844 3.21875 C 41.730469 3.988281 42.011719 6.113281 42.351562 7.105469 C 42.613281 7.4375 43.019531 7.617188 43.308594 7.921875 C 43.839844 8.363281 44.328125 8.855469 44.828125 9.332031 C 45.046875 9.558594 45.238281 9.8125 45.5 9.992188 C 45.535156 8.667969 43.683594 7.851562 43.46875 6.335938 C 43.402344 5.789062 43.3125 5.164062 42.839844 4.808594 C 42.578125 4.535156 42.140625 4.398438 42.027344 4.003906 C 42.402344 3.914062 42.628906 4.242188 42.859375 4.46875 C 43.40625 5.039062 44.117188 5.421875 44.667969 5.988281 C 46.082031 7.503906 45.761719 9.515625 45.929688 10.511719 C 46.605469 11.355469 47.28125 12.207031 47.851562 13.128906 C 47.976562 13.3125 48.058594 13.546875 48.273438 13.648438 C 48.335938 12.550781 47.121094 11.714844 47.121094 10.011719 C 47.121094 9.480469 47.121094 8.9375 46.941406 8.433594 C 46.734375 7.867188 45.996094 7.414062 45.953125 7.03125 C 46.042969 7.027344 46.136719 7.023438 46.230469 7.019531 C 46.457031 7.257812 46.660156 7.519531 46.847656 7.789062 C 47.460938 8.566406 48.359375 9.175781 48.640625 10.171875 C 48.902344 11.351562 48.550781 12.554688 48.59375 13.746094 C 48.511719 14.644531 49.085938 14.878906 50.191406 17.984375 C 50.230469 17.996094 50.316406 18.015625 50.359375 18.027344 C 50.425781 16.8125 49.539062 15.863281 49.960938 14.25 C 50.039062 13.765625 50.167969 13.273438 50.097656 12.78125 C 49.933594 12.113281 49.425781 11.601562 49.210938 10.953125 C 49.308594 10.953125 49.449219 10.875 49.523438 10.976562 C 49.964844 11.511719 50.226562 12.164062 50.589844 12.75 C 50.96875 13.4375 51.382812 14.160156 51.390625 14.96875 C 51.339844 16.261719 50.867188 17.484375 50.574219 18.734375 C 50.425781 19.335938 50.917969 19.9375 51.136719 22.210938 C 51.183594 22.222656 51.28125 22.246094 51.328125 22.257812 C 51.410156 21.421875 51.125 20.585938 51.308594 19.753906 C 51.457031 18.976562 51.988281 18.34375 52.148438 17.570312 C 52.257812 16.835938 51.777344 16.191406 51.71875 15.476562 C 51.773438 15.476562 51.886719 15.480469 51.941406 15.480469 C 52.144531 15.769531 53.121094 18.351562 52.867188 19.8125 C 52.441406 21.25 51.429688 22.609375 51.269531 23.261719 C 51.414062 24.632812 51.34375 26.011719 51.226562 27.378906 C 51.875 27.320312 51.421875 25.25 52.464844 23.851562 C 53.871094 21.878906 53.136719 21.8125 53.277344 20.347656 C 53.332031 20.351562 53.4375 20.363281 53.488281 20.367188 C 53.691406 20.976562 53.667969 21.632812 53.71875 22.269531 C 53.824219 22.8125 53.792969 23.371094 53.796875 23.921875 C 53.835938 24.917969 52.863281 26.019531 52.128906 26.945312 C 51.269531 28.058594 51.113281 27.816406 51.015625 28.796875 C 50.875 29.71875 50.605469 30.609375 50.402344 31.515625 C 50.820312 31.4375 50.914062 30.089844 51.515625 29.25 C 51.917969 28.546875 53.003906 28.183594 53.285156 27.191406 C 53.394531 26.777344 53.429688 26.34375 53.566406 25.9375 C 53.632812 25.816406 53.824219 25.921875 53.792969 26.050781 C 53.722656 26.773438 53.496094 27.480469 53.4375 28.207031 C 53.019531 29.886719 53.113281 29.734375 52.101562 30.644531 C 51.542969 31.15625 50.933594 31.601562 50.332031 32.058594 C 50.085938 32.230469 50.027344 32.542969 49.921875 32.808594 C 49.625 33.6875 49.167969 34.5 48.816406 35.351562 C 49.53125 35.308594 49.632812 33.15625 51.199219 32.703125 C 53.015625 32.109375 52.53125 31.121094 53.101562 30.824219 C 53.144531 31.007812 53.121094 31.195312 53.050781 31.371094 C 51.554688 35.0625 51.175781 34.402344 48.515625 35.851562 C 48.40625 35.988281 47.484375 37.722656 46.082031 39.347656 C 46.058594 39.402344 46.015625 39.511719 45.996094 39.566406 C 47.066406 39.238281 47.175781 37.898438 48.5 37.320312 C 49.015625 37.121094 49.585938 37.058594 50.054688 36.746094 C 50.894531 36.179688 50.550781 36.308594 51.320312 35.242188 C 51.371094 35.246094 51.476562 35.25 51.53125 35.25 C 51.566406 35.765625 51.167969 36.15625 50.945312 36.582031 C 49.398438 39.015625 49.660156 38.558594 45.90625 39.980469 C 45.679688 40.070312 45.421875 40.117188 45.246094 40.304688 C 43.160156 42.515625 42.632812 42.480469 42.558594 42.910156 C 43.777344 42.660156 44.328125 41.285156 45.53125 41.011719 C 46.160156 40.855469 46.84375 41.105469 47.445312 40.8125 C 47.773438 40.613281 48.023438 40.308594 48.332031 40.078125 C 48.488281 39.980469 48.566406 40.238281 48.476562 40.339844 C 48.1875 40.804688 46.558594 42.390625 45.691406 42.769531 C 44.789062 43.195312 42.105469 43.101562 41.777344 43.34375 C 40.902344 43.976562 39.988281 44.554688 39.023438 45.042969 C 38.871094 45.121094 38.707031 45.191406 38.617188 45.34375 C 38.855469 45.355469 39.105469 45.375 39.335938 45.304688 C 40.109375 45.105469 40.597656 44.332031 41.402344 44.21875 C 42.058594 44.171875 42.726562 44.296875 43.378906 44.15625 C 44.425781 43.953125 43.894531 44.160156 45.121094 43.386719 C 45.160156 43.410156 45.238281 43.460938 45.28125 43.488281 C 45.140625 43.914062 44.710938 44.136719 44.367188 44.386719 C 43.472656 45.007812 42.539062 45.75 41.398438 45.789062 C 37.917969 45.59375 37.992188 45.527344 37.660156 45.714844 C 36.859375 46.082031 36.035156 46.390625 35.203125 46.660156 C 34.949219 46.746094 34.6875 46.808594 34.449219 46.929688 C 35.15625 47.429688 36.242188 46.675781 36.921875 46.453125 C 37.339844 46.324219 37.746094 46.542969 38.148438 46.636719 C 38.714844 46.800781 39.316406 46.75 39.898438 46.738281 C 40.4375 46.757812 40.855469 46.367188 41.359375 46.242188 C 41.386719 46.277344 41.445312 46.339844 41.472656 46.375 C 41.152344 46.734375 40.6875 46.914062 40.25 47.085938 C 39.207031 47.492188 38.148438 47.964844 37.007812 47.949219 C 34.820312 47.679688 34.238281 47.21875 33.761719 47.085938 C 30.75 47.863281 30.355469 47.476562 30.027344 47.839844 C 30.355469 47.941406 30.699219 48.089844 31.046875 47.992188 C 31.582031 47.917969 32.132812 47.691406 32.667969 47.882812 C 32.957031 47.980469 33.191406 48.183594 33.46875 48.304688 C 34.0625 48.589844 35.195312 48.789062 36.566406 48.515625 C 36.589844 48.554688 36.640625 48.628906 36.664062 48.667969 C 36.292969 48.984375 35.773438 48.980469 35.316406 49.058594 C 32.179688 49.628906 32.109375 49.335938 31.03125 48.84375 C 30.445312 48.558594 29.878906 48.21875 29.363281 47.8125 C 29.152344 47.78125 28.933594 47.804688 28.71875 47.816406 C 28.894531 48.0625 29.199219 48.167969 29.429688 48.355469 C 31.867188 50.195312 31.808594 51.371094 34.035156 51.386719 C 33.007812 51.742188 31.902344 51.925781 30.8125 51.863281 C 30.207031 49.027344 28.515625 47.8125 27.917969 47.886719 C 26.445312 48.328125 25.550781 50.316406 25.1875 51.878906 C 24.09375 51.902344 22.984375 51.753906 21.957031 51.378906 C 24.273438 51.34375 24.246094 50.070312 26.707031 48.265625 C 26.886719 48.121094 27.144531 48.046875 27.238281 47.8125 C 27 47.824219 26.71875 47.71875 26.519531 47.902344 C 25.921875 48.363281 25.253906 48.726562 24.570312 49.039062 C 23.53125 49.605469 22.304688 49.335938 21.199219 49.15625 C 20.621094 48.984375 19.976562 49.054688 19.4375 48.753906 C 19.414062 48.675781 19.394531 48.597656 19.382812 48.515625 C 19.84375 48.554688 20.292969 48.707031 20.757812 48.664062 C 21.253906 48.597656 21.761719 48.605469 22.234375 48.433594 C 22.769531 48.28125 23.191406 47.816406 23.769531 47.796875 C 24.234375 47.820312 24.6875 47.964844 25.148438 48.019531 C 25.417969 48.054688 25.671875 47.945312 25.925781 47.867188 C 25.929688 47.832031 25.9375 47.761719 25.941406 47.726562 C 24.695312 47.585938 23.449219 47.394531 22.230469 47.078125 C 21.257812 47.546875 20.195312 47.789062 19.132812 47.941406 C 17.894531 48 16.746094 47.457031 15.613281 47.039062 C 15.277344 46.886719 14.910156 46.75 14.652344 46.472656 C 14.550781 46.390625 14.585938 46.179688 14.75 46.277344 C 15.570312 46.566406 15.46875 46.859375 17.5 46.722656 C 18.054688 46.667969 18.585938 46.285156 19.152344 46.476562 C 20.039062 46.734375 20.289062 47.25 21.414062 47.035156 C 21.4375 46.996094 21.488281 46.914062 21.511719 46.871094 C 20.421875 46.574219 19.359375 46.179688 18.332031 45.703125 C 18.035156 45.535156 17.6875 45.609375 17.367188 45.621094 C 16.628906 45.710938 15.878906 45.660156 15.144531 45.761719 C 14.679688 45.820312 14.203125 45.777344 13.753906 45.636719 C 12.851562 45.324219 11.101562 44.058594 10.816406 43.71875 C 10.765625 43.617188 10.753906 43.382812 10.921875 43.402344 C 11.429688 43.714844 11.808594 44.367188 14.261719 44.207031 C 15.515625 44.089844 16.042969 45.585938 17.394531 45.335938 C 17.316406 45.246094 17.222656 45.171875 17.117188 45.121094 C 16.113281 44.585938 15.132812 44 14.207031 43.335938 C 13.597656 43.144531 12.9375 43.203125 12.308594 43.09375 C 10.699219 42.996094 10.175781 42.949219 8.851562 41.703125 C 8.375 41.242188 7.832031 40.839844 7.488281 40.265625 C 7.507812 40.207031 7.550781 40.085938 7.570312 40.027344 C 7.964844 40.226562 8.210938 40.625 8.601562 40.835938 C 9.273438 41.121094 10.035156 40.808594 10.714844 41.082031 C 11.78125 41.457031 12.316406 42.726562 13.484375 42.886719 C 13.425781 42.769531 13.347656 42.667969 13.246094 42.589844 C 12.375 41.894531 11.554688 41.136719 10.796875 40.324219 C 10.484375 39.941406 7.265625 39.199219 6.4375 38.421875 C 5.703125 37.71875 5.203125 36.820312 4.691406 35.953125 C 4.554688 35.707031 4.339844 35.390625 4.601562 35.152344 C 5.191406 35.773438 5.078125 36.257812 6.089844 36.828125 C 6.628906 37.128906 7.273438 37.152344 7.804688 37.472656 C 8.75 37.996094 9.148438 39.433594 10.09375 39.582031 C 9.898438 39.265625 9.632812 39.003906 9.402344 38.714844 C 6.230469 34.5 9.023438 36.808594 5.027344 34.625 C 4.277344 34.203125 3.789062 33.175781 3.269531 32.09375 C 3.101562 31.683594 2.820312 31.28125 2.929688 30.816406 C 3.332031 31.148438 3.324219 31.765625 3.730469 32.101562 C 4.191406 32.621094 4.949219 32.625 5.480469 33.042969 C 6.378906 33.71875 6.523438 35.160156 7.214844 35.421875 C 7.191406 35.300781 7.160156 35.183594 7.097656 35.078125 C 5.851562 32.589844 6.027344 32.285156 5.746094 32.113281 C 2.894531 29.976562 2.890625 29.757812 2.613281 28.367188 C 2.410156 26.855469 2.164062 26.371094 2.25 25.894531 C 2.300781 25.894531 2.398438 25.890625 2.449219 25.890625 C 2.625 26.515625 2.605469 27.226562 3.027344 27.757812 C 3.453125 28.363281 4.167969 28.6875 4.558594 29.324219 C 5.21875 30.390625 5.152344 31.398438 5.609375 31.453125 C 5.351562 30.445312 5.058594 29.4375 4.9375 28.398438 C 4.890625 27.832031 3.664062 26.984375 2.503906 25.042969 C 2.066406 24.199219 2.207031 23.21875 2.289062 22.3125 C 2.40625 21.667969 2.257812 20.96875 2.546875 20.359375 C 2.597656 20.359375 2.707031 20.355469 2.761719 20.355469 C 2.804688 20.949219 2.640625 21.53125 2.683594 22.125 C 2.960938 23.550781 4.007812 23.804688 4.242188 25.703125 C 4.351562 26.355469 4.375 27.300781 4.78125 27.300781 C 4.722656 26.203125 4.582031 25.097656 4.695312 23.996094 C 4.6875 23.636719 4.828125 23.242188 4.625 22.914062 C 3.1875 20.183594 2.695312 19.710938 3.414062 17.347656 C 3.589844 16.777344 3.703125 16.175781 3.980469 15.640625 C 4.042969 15.519531 4.167969 15.460938 4.273438 15.386719 C 4.320312 16.058594 3.84375 16.652344 3.84375 17.320312 C 3.914062 18.210938 4.554688 18.917969 4.714844 19.785156 C 4.863281 21.472656 4.46875 21.816406 4.757812 22.285156 C 4.996094 21.992188 4.765625 21.945312 5.417969 19.347656 C 5.546875 18.726562 5.269531 18.136719 5.117188 17.550781 C 4.386719 14.558594 4.367188 14.636719 5.765625 12.152344 C 6.007812 11.746094 6.1875 11.296875 6.515625 10.953125 C 6.601562 10.929688 6.691406 10.914062 6.78125 10.910156 C 6.636719 11.652344 5.960938 12.179688 5.898438 12.945312 C 5.859375 13.792969 6.25 14.609375 6.136719 15.457031 C 6.105469 16.34375 5.582031 17.148438 5.679688 18.046875 C 5.71875 18.042969 5.796875 18.03125 5.835938 18.023438 C 6.167969 16.878906 6.695312 15.796875 7.21875 14.726562 C 7.605469 13.945312 7.28125 12.160156 7.300781 11.46875 C 7.328125 10.179688 7.058594 9.953125 8.8125 8.210938 C 9.164062 7.855469 9.390625 7.390625 9.769531 7.058594 C 9.855469 7.03125 9.941406 7.011719 10.027344 7 C 10.007812 7.125 10.023438 7.273438 9.914062 7.363281 C 8.816406 8.53125 9.003906 8.371094 8.875 10.089844 C 8.929688 11.527344 7.714844 12.597656 7.730469 13.617188 C 8.070312 13.542969 7.761719 13.429688 10.0625 10.542969 C 10.234375 9.847656 10.003906 8.179688 10.792969 6.691406 C 11.183594 6.019531 11.828125 5.550781 12.433594 5.089844 C 12.84375 4.804688 13.160156 4.40625 13.550781 4.09375 C 13.648438 4.003906 13.789062 4 13.910156 3.96875 C 13.910156 4.027344 13.914062 4.148438 13.914062 4.207031 C 13.589844 4.511719 13.1875 4.730469 12.910156 5.082031 C 12.476562 5.6875 12.65625 6.5 12.273438 7.125 C 11.695312 8.164062 10.558594 8.871094 10.515625 9.960938 C 10.777344 9.8125 10.957031 9.558594 11.167969 9.347656 C 11.589844 8.933594 12.007812 8.507812 12.46875 8.128906 C 12.824219 7.773438 13.261719 7.515625 13.609375 7.15625 C 14.007812 6.46875 14.074219 3.96875 15.785156 3.082031 C 16.152344 2.871094 16.578125 2.769531 16.910156 2.496094 Z M 16.910156 2.496094 "/>
<path style=" stroke:none;fill-rule:nonzero;fill:rgb(0%,0%,0%);fill-opacity:1;" d="M 27.535156 8.40625 C 27.839844 8.382812 28.148438 8.390625 28.457031 8.410156 C 28.542969 9.246094 28.453125 10.09375 28.503906 10.933594 C 29.054688 10.382812 29.398438 9.648438 29.957031 9.105469 C 29.902344 15.144531 30.039062 15.164062 29.878906 15.402344 C 29.429688 16.03125 28.933594 16.628906 28.507812 17.273438 C 28.476562 17.675781 28.46875 18.089844 28.519531 18.492188 C 30.199219 16.960938 31.621094 17.4375 34.609375 17.085938 C 35.828125 16.894531 37.117188 16.628906 38.070312 15.789062 C 38.390625 15.515625 38.53125 15.109375 38.625 14.714844 C 38.992188 14.289062 39.714844 14.210938 40.136719 14.59375 C 40.4375 14.96875 40.417969 15.53125 40.140625 15.914062 C 39.9375 16.15625 39.628906 16.257812 39.367188 16.417969 C 39.433594 16.59375 45.222656 29.632812 45.609375 29.953125 C 41.933594 33.722656 35.980469 33.453125 32.683594 29.941406 C 33.074219 29.789062 32.527344 30.777344 38.605469 17.371094 C 38.722656 17.117188 38.84375 16.871094 38.921875 16.605469 C 35.640625 17.398438 29.839844 17.78125 28.53125 20.808594 C 28.472656 20.949219 28.464844 39.304688 28.515625 39.78125 C 28.9375 39.554688 29.359375 39.328125 29.789062 39.125 C 29.289062 40.371094 28.675781 41.566406 28.148438 42.800781 C 28.09375 42.871094 28.089844 43.078125 27.957031 42.996094 C 27.375 41.703125 26.777344 40.414062 26.199219 39.117188 C 26.65625 39.300781 27.066406 39.59375 27.527344 39.777344 C 27.539062 36.902344 27.539062 22.074219 27.527344 20.910156 C 26.3125 17.761719 19.996094 17.328125 17.097656 16.605469 C 17.15625 16.839844 16.804688 16.035156 22.949219 29.601562 C 23.003906 29.777344 23.136719 29.886719 23.296875 29.964844 C 19.941406 33.570312 13.8125 33.59375 10.429688 29.953125 C 10.746094 29.671875 16.453125 16.902344 16.640625 16.417969 C 16.386719 16.269531 16.105469 16.148438 15.890625 15.941406 C 15.160156 14.960938 16.167969 13.765625 17.351562 14.640625 C 17.550781 15.074219 17.414062 15.90625 19.496094 16.652344 C 22.644531 17.734375 25.222656 16.636719 27.125 18.203125 C 27.253906 18.304688 27.382812 18.410156 27.527344 18.496094 C 27.535156 18.109375 27.542969 17.71875 27.53125 17.328125 C 27.097656 16.632812 26.546875 16.011719 26.09375 15.332031 C 26.0625 15.113281 26.078125 9.132812 26.078125 9.101562 C 26.792969 9.933594 27.210938 10.710938 27.523438 10.9375 C 27.550781 10.09375 27.527344 9.25 27.535156 8.40625 M 27.792969 8.929688 C 27.832031 9.332031 27.714844 9.765625 27.871094 10.148438 C 28.25 9.980469 28.207031 10.492188 28.199219 8.902344 C 28.066406 8.910156 27.929688 8.917969 27.792969 8.929688 M 28.609375 11.523438 C 28.414062 11.742188 28.480469 12.058594 28.453125 12.328125 C 28.496094 12.316406 28.578125 12.292969 28.617188 12.28125 C 28.90625 11.9375 29.152344 11.554688 29.433594 11.203125 C 29.65625 10.949219 29.5625 10.589844 29.554688 10.28125 C 29.210938 10.671875 28.933594 11.117188 28.609375 11.523438 M 26.417969 10.34375 C 26.417969 10.554688 26.40625 10.769531 26.421875 10.984375 C 26.625 11.339844 26.90625 11.644531 27.140625 11.980469 C 27.253906 12.125 27.332031 12.332031 27.542969 12.347656 C 27.535156 12.117188 27.574219 11.875 27.507812 11.648438 C 27.316406 11.355469 27.078125 11.089844 26.882812 10.796875 C 26.753906 10.621094 26.65625 10.386719 26.417969 10.34375 M 29.152344 12.234375 C 28.929688 12.558594 28.664062 12.847656 28.460938 13.179688 C 28.4375 13.371094 28.445312 13.5625 28.445312 13.753906 C 28.488281 13.734375 28.570312 13.699219 28.613281 13.679688 C 29.832031 12.011719 29.554688 12.59375 29.574219 11.765625 C 29.371094 11.855469 29.277344 12.066406 29.152344 12.234375 M 26.414062 11.785156 C 26.417969 11.972656 26.390625 12.164062 26.4375 12.351562 C 26.601562 12.640625 26.832031 12.886719 27.023438 13.164062 C 27.175781 13.371094 27.300781 13.613281 27.535156 13.742188 C 27.542969 13.554688 27.550781 13.363281 27.527344 13.175781 C 27.261719 12.707031 26.902344 12.300781 26.582031 11.871094 C 26.539062 11.851562 26.457031 11.808594 26.414062 11.785156 M 26.421875 13.136719 C 26.414062 13.339844 26.402344 13.542969 26.421875 13.746094 C 26.605469 14.027344 26.832031 14.277344 27.015625 14.558594 C 27.152344 14.746094 27.273438 14.996094 27.527344 15.03125 C 27.523438 14.851562 27.558594 14.667969 27.519531 14.488281 C 26.675781 13.285156 26.609375 13.222656 26.421875 13.136719 M 29.007812 13.800781 C 28.847656 14.039062 28.65625 14.261719 28.496094 14.503906 C 28.480469 14.695312 28.488281 14.890625 28.492188 15.085938 C 28.582031 15.035156 28.679688 14.988281 28.734375 14.894531 C 29.003906 14.503906 29.316406 14.144531 29.578125 13.75 C 29.597656 13.535156 29.582031 13.320312 29.566406 13.105469 C 29.320312 13.285156 29.183594 13.5625 29.007812 13.800781 M 29.015625 15.1875 C 28.832031 15.441406 28.613281 15.675781 28.464844 15.953125 C 28.433594 16.125 28.480469 16.296875 28.496094 16.46875 C 28.886719 16.207031 29.078125 15.738281 29.394531 15.394531 C 29.640625 15.167969 29.582031 14.828125 29.566406 14.527344 C 29.324219 14.691406 29.191406 14.960938 29.015625 15.1875 M 26.410156 14.574219 C 26.414062 14.757812 26.398438 14.9375 26.429688 15.117188 C 26.59375 15.390625 26.804688 15.628906 26.980469 15.894531 C 27.148438 16.109375 27.28125 16.375 27.535156 16.507812 C 27.492188 15.664062 27.804688 16.304688 26.71875 14.785156 C 26.648438 14.671875 26.539062 14.601562 26.410156 14.574219 M 11.214844 29.089844 C 11.101562 29.351562 10.949219 29.601562 10.902344 29.886719 C 14.855469 29.902344 18.808594 29.894531 22.761719 29.890625 C 22.566406 29.324219 16.988281 17.011719 16.796875 16.800781 C 14.917969 20.890625 13.074219 24.992188 11.210938 29.089844 M 39.132812 16.847656 C 32.980469 30.425781 33.308594 29.625 33.269531 29.890625 C 37.222656 29.898438 41.175781 29.898438 45.128906 29.890625 C 45.039062 29.5625 41.703125 22.285156 39.332031 17.039062 C 39.292969 16.945312 39.257812 16.832031 39.132812 16.847656 Z M 39.132812 16.847656 "/>
</g>
</svg>
