<?xml version="1.0" encoding="UTF-8"?>
<svg xmlns="http://www.w3.org/2000/svg" xmlns:xlink="http://www.w3.org/1999/xlink" width="33px" height="32px" viewBox="0 0 33 32" version="1.1">
<g id="surface1">
<path style=" stroke:none;fill-rule:nonzero;fill:rgb(0%,0%,0%);fill-opacity:1;" d="M 9.964844 1.480469 C 10.105469 1.386719 10.226562 1.222656 10.410156 1.269531 C 10.316406 1.480469 10.101562 1.597656 9.992188 1.796875 C 9.441406 3.246094 8.425781 3.292969 8.375 3.96875 C 8.792969 3.722656 9.179688 3.425781 9.609375 3.199219 C 9.746094 3.132812 9.863281 3.027344 9.949219 2.902344 C 10.921875 1.570312 12.519531 1.296875 14.109375 1.6875 C 14.199219 1.699219 14.226562 1.777344 14.246094 1.851562 C 14 1.886719 13.746094 1.875 13.5 1.910156 C 12.515625 2.203125 12.25 3.519531 10.648438 3.261719 C 10.425781 3.265625 10.207031 3.203125 9.984375 3.203125 C 9.503906 3.445312 8.535156 4.058594 8.308594 4.296875 C 8.46875 4.382812 8.652344 4.355469 8.828125 4.347656 C 9.101562 4.3125 9.320312 4.136719 9.558594 4.011719 C 10.347656 3.601562 10.398438 3.707031 11.453125 3.839844 C 11.832031 3.917969 12.222656 3.851562 12.605469 3.871094 C 12.597656 3.894531 12.582031 3.941406 12.574219 3.96875 C 12.359375 4.042969 12.128906 4.054688 11.90625 4.089844 C 11.460938 4.257812 11.078125 4.582031 10.613281 4.699219 C 9.699219 4.71875 8.792969 4.574219 7.878906 4.609375 C 7.261719 5.117188 6.667969 5.660156 6.15625 6.28125 C 6.53125 6.523438 7.1875 5.785156 7.492188 5.59375 C 7.753906 5.398438 8.082031 5.320312 8.402344 5.3125 C 10.027344 5.167969 9.152344 5.285156 10.160156 5.066406 C 10.160156 5.097656 10.160156 5.160156 10.160156 5.191406 C 9.960938 5.289062 9.742188 5.335938 9.542969 5.429688 C 9.175781 5.628906 8.648438 6.238281 8.289062 6.285156 C 5.617188 6.703125 5.933594 6.570312 5.769531 6.75 C 5.25 7.390625 4.601562 8.414062 4.527344 8.664062 C 5.0625 8.65625 5.414062 7.71875 5.933594 7.449219 C 6.585938 7.085938 6.875 7.285156 8.132812 6.660156 C 8.136719 6.691406 8.144531 6.753906 8.148438 6.78125 C 7.953125 6.964844 7.675781 7.03125 7.496094 7.230469 C 7.074219 7.699219 6.871094 8.089844 6.492188 8.242188 C 4.148438 9.097656 4.328125 8.972656 4.210938 9.234375 C 3.910156 9.90625 3.613281 10.59375 3.445312 11.3125 C 3.851562 11.328125 4.070312 10.359375 4.527344 9.886719 C 5.003906 9.472656 5.640625 9.328125 6.148438 8.964844 C 6.300781 8.855469 6.445312 8.738281 6.601562 8.632812 C 6.605469 8.695312 6.632812 8.769531 6.578125 8.820312 C 6.429688 8.992188 6.21875 9.101562 6.089844 9.292969 C 5.835938 9.679688 5.699219 10.152344 5.355469 10.472656 C 4.710938 10.890625 3.449219 11.644531 3.296875 11.832031 C 3.140625 12.46875 3.054688 13.121094 2.976562 13.769531 C 3.289062 13.730469 3.332031 12.816406 3.738281 12.269531 C 4.128906 11.828125 4.683594 11.59375 5.113281 11.195312 C 5.222656 11.09375 5.230469 10.917969 5.367188 10.84375 C 5.382812 11.0625 5.207031 11.230469 5.164062 11.4375 C 4.875 12.8125 4.585938 12.710938 3.351562 13.90625 C 3.226562 14.035156 3.070312 14.136719 2.964844 14.285156 C 2.929688 14.703125 2.949219 15.992188 3.058594 16.484375 L 3.136719 16.484375 C 3.226562 16.324219 3.308594 16.148438 3.304688 15.957031 C 3.3125 14.628906 3.5625 14.777344 4.527344 13.695312 C 4.671875 13.566406 4.71875 13.375 4.761719 13.195312 C 4.78125 13.1875 4.824219 13.171875 4.84375 13.167969 C 4.871094 13.382812 4.738281 13.570312 4.738281 13.78125 C 4.667969 15.175781 4.5 14.640625 3.121094 16.878906 C 3.203125 17.597656 3.402344 18.300781 3.621094 18.988281 C 3.636719 19.078125 3.777344 19.027344 3.773438 18.953125 C 3.851562 18.582031 3.761719 18.207031 3.730469 17.839844 C 3.71875 17.710938 3.65625 17.578125 3.707031 17.453125 C 3.871094 16.84375 4.332031 16.382812 4.585938 15.8125 C 4.648438 15.691406 4.566406 15.492188 4.695312 15.417969 C 4.890625 17.878906 4.914062 16.351562 3.867188 19.261719 C 3.847656 19.34375 3.800781 19.425781 3.820312 19.511719 C 4.066406 20.195312 4.410156 20.835938 4.757812 21.46875 C 4.777344 21.476562 4.816406 21.488281 4.835938 21.492188 C 4.855469 21.28125 4.875 21.054688 4.785156 20.851562 C 4.253906 19.617188 4.582031 19.636719 5.03125 18.148438 C 5.078125 17.96875 5.007812 17.78125 5.050781 17.597656 C 5.121094 17.703125 5.175781 17.816406 5.175781 17.941406 C 5.203125 18.363281 5.703125 19.292969 5.464844 19.855469 C 5.234375 20.484375 5.125 21.144531 4.976562 21.796875 C 5.496094 22.640625 6.304688 23.621094 6.515625 23.765625 C 6.570312 23.230469 5.878906 22.609375 5.859375 22.035156 C 5.875 21.5 6.019531 20.976562 6.050781 20.441406 C 6.074219 20.269531 5.984375 20.117188 5.96875 19.953125 C 6.1875 20.058594 6.164062 20.359375 6.28125 20.542969 C 7.058594 21.707031 6.859375 22.640625 6.746094 23.855469 C 6.746094 23.921875 6.707031 24.007812 6.769531 24.058594 C 6.96875 24.253906 8.265625 25.503906 8.527344 25.496094 C 8.53125 25.035156 7.886719 24.484375 7.609375 24.089844 C 7.332031 23.5625 7.460938 22.949219 7.378906 22.382812 C 7.367188 22.199219 7.210938 22.066406 7.207031 21.882812 C 7.417969 22.035156 7.476562 22.3125 7.664062 22.488281 C 8.019531 22.839844 8.261719 23.289062 8.460938 23.746094 C 8.585938 24.144531 8.597656 24.5625 8.664062 24.972656 C 8.71875 25.863281 8.765625 25.707031 9.019531 25.902344 C 9.542969 26.234375 10.082031 26.554688 10.652344 26.804688 C 10.636719 26.742188 10.648438 26.664062 10.601562 26.617188 C 10.335938 26.296875 9.9375 26.132812 9.632812 25.855469 C 9.269531 25.351562 9.085938 24.183594 8.933594 23.816406 C 8.867188 23.695312 8.761719 23.597656 8.691406 23.472656 C 8.867188 23.488281 8.957031 23.65625 9.066406 23.773438 C 9.199219 23.929688 9.855469 24.324219 10.226562 25.011719 C 10.566406 25.773438 10.816406 26.910156 11.109375 27.023438 C 11.800781 27.320312 12.515625 27.5625 13.246094 27.746094 C 13.253906 27.714844 13.269531 27.65625 13.277344 27.628906 C 13.089844 27.332031 12.515625 27.152344 11.984375 26.851562 C 11.40625 26.523438 11.445312 25.953125 11.023438 25.328125 C 10.90625 25.132812 10.640625 25.074219 10.566406 24.84375 C 10.828125 24.882812 11.015625 25.085938 11.242188 25.207031 C 11.492188 25.363281 11.777344 25.453125 12.015625 25.625 C 12.773438 26.246094 13.085938 27.257812 13.851562 27.871094 C 14.160156 27.949219 15.40625 28.144531 15.628906 28.105469 C 15.621094 27.730469 14.820312 27.742188 14.238281 27.390625 C 13.730469 27.050781 13.628906 26.332031 13.078125 26.046875 C 12.992188 26 12.917969 25.933594 12.867188 25.851562 C 13.109375 25.871094 13.324219 25.996094 13.558594 26.0625 C 13.882812 26.183594 14.253906 26.199219 14.550781 26.398438 C 15.210938 26.84375 15.511719 27.640625 16.144531 28.113281 C 16.25 28.164062 16.378906 28.136719 16.492188 28.148438 C 16.632812 28.136719 16.792969 28.175781 16.910156 28.082031 C 17.121094 27.945312 17.246094 27.722656 17.421875 27.546875 C 18.621094 25.988281 18.566406 26.382812 19.441406 26.0625 C 19.671875 25.988281 19.894531 25.878906 20.136719 25.851562 C 20.046875 26.03125 19.824219 26.074219 19.6875 26.210938 C 19.347656 26.554688 19.203125 27.058594 18.8125 27.355469 C 18.4375 27.621094 17.957031 27.660156 17.550781 27.863281 C 17.460938 27.898438 17.410156 27.992188 17.355469 28.070312 C 17.464844 28.15625 17.605469 28.09375 17.730469 28.089844 C 19.3125 27.898438 19.132812 27.902344 19.34375 27.699219 C 19.925781 27.125 20.25 26.347656 20.824219 25.765625 C 21.082031 25.503906 21.445312 25.402344 21.75 25.210938 C 21.972656 25.085938 22.167969 24.910156 22.417969 24.832031 C 22.414062 24.863281 22.410156 24.925781 22.410156 24.953125 C 22.222656 25.101562 22.015625 25.246094 21.902344 25.460938 C 21.699219 25.789062 21.613281 26.175781 21.402344 26.5 C 21.050781 27.070312 19.824219 27.226562 19.710938 27.707031 C 20.125 27.742188 21.578125 27.164062 21.984375 26.984375 C 22.589844 26.128906 22.371094 24.875 23.808594 23.90625 C 23.996094 23.785156 24.066406 23.5 24.308594 23.472656 C 24.242188 23.628906 24.082031 23.730469 24.039062 23.902344 C 23.71875 25.113281 23.628906 25.476562 23.386719 25.84375 C 23.09375 26.113281 22.710938 26.273438 22.441406 26.574219 C 22.386719 26.632812 22.375 26.710938 22.355469 26.785156 C 22.933594 26.582031 24.136719 25.84375 24.25 25.6875 C 24.320312 25.460938 24.363281 24.59375 24.484375 23.992188 C 24.5625 23.597656 24.78125 23.253906 24.992188 22.917969 C 25.144531 22.664062 25.402344 22.484375 25.539062 22.21875 C 25.601562 22.097656 25.679688 21.980469 25.78125 21.890625 C 25.789062 21.914062 25.808594 21.960938 25.816406 21.984375 C 25.441406 22.472656 25.738281 22.707031 25.519531 23.757812 C 25.488281 23.945312 25.402344 24.128906 25.269531 24.269531 C 24.476562 25.140625 24.515625 25.222656 24.496094 25.503906 C 24.816406 25.402344 25.863281 24.445312 26.285156 24.011719 C 26.21875 23.722656 26.242188 23.425781 26.191406 23.132812 C 26.132812 22.265625 26.054688 22 26.472656 20.992188 C 26.570312 20.742188 26.765625 20.546875 26.832031 20.285156 C 26.886719 20.164062 26.886719 19.976562 27.050781 19.949219 C 26.75 20.632812 27.320312 21.726562 27.085938 22.347656 C 26.894531 22.816406 26.515625 23.214844 26.480469 23.738281 C 26.738281 23.652344 27.675781 22.371094 28.007812 21.835938 C 28.023438 21.523438 27.714844 20.449219 27.6875 20.316406 C 27.550781 19.660156 27.367188 19.886719 27.5625 18.898438 C 27.652344 18.453125 27.75 18.585938 27.875 17.679688 C 27.898438 17.671875 27.949219 17.652344 27.972656 17.644531 C 27.972656 17.804688 27.925781 17.964844 27.964844 18.125 C 28.125 18.648438 28.375 19.148438 28.480469 19.691406 C 28.558594 20.160156 28.3125 20.59375 28.160156 21.023438 C 28.152344 21.183594 28.113281 21.367188 28.214844 21.507812 C 28.59375 20.886719 28.910156 20.230469 29.175781 19.558594 C 29.234375 19.453125 29.160156 19.339844 29.132812 19.238281 C 28.902344 18.632812 28.683594 18.015625 28.382812 17.441406 C 28.007812 16.851562 28.34375 16.316406 28.292969 15.453125 C 28.316406 15.449219 28.367188 15.441406 28.390625 15.4375 C 28.390625 15.546875 28.386719 15.652344 28.402344 15.757812 C 28.648438 16.390625 29.199219 16.875 29.316406 17.554688 C 29.28125 17.898438 29.042969 19.167969 29.375 19.023438 C 29.457031 18.769531 30.003906 17.011719 29.839844 16.800781 C 28.507812 14.707031 28.457031 15.113281 28.316406 14.335938 C 28.269531 14.117188 28.308594 13.886719 28.253906 13.667969 C 28.222656 13.492188 28.125 13.308594 28.21875 13.136719 C 28.285156 13.3125 28.308594 13.519531 28.441406 13.660156 C 28.714844 13.964844 29.023438 14.234375 29.296875 14.539062 C 30.007812 15.417969 29.496094 15.855469 29.847656 16.4375 C 29.871094 16.492188 29.90625 16.503906 29.957031 16.480469 C 30.03125 16.144531 30.097656 14.910156 30.042969 14.28125 C 28.523438 12.707031 28.191406 13.019531 27.851562 11.46875 C 27.800781 11.25 27.644531 11.070312 27.636719 10.839844 C 27.785156 10.933594 27.796875 11.128906 27.933594 11.234375 C 28.375 11.625 28.953125 11.863281 29.320312 12.34375 C 29.683594 12.902344 29.710938 13.6875 30.007812 13.726562 C 30.007812 13.128906 29.71875 11.863281 29.714844 11.816406 C 29.042969 11.316406 28.3125 10.910156 27.617188 10.441406 C 27.289062 10.105469 27.15625 9.632812 26.886719 9.25 C 26.722656 9.066406 26.511719 8.925781 26.363281 8.726562 C 26.390625 8.699219 26.417969 8.671875 26.445312 8.644531 C 27.539062 9.558594 28.3125 9.453125 28.734375 10.230469 C 28.894531 10.460938 29.253906 11.375 29.566406 11.308594 C 29.367188 10.53125 29.066406 9.777344 28.699219 9.0625 C 28.058594 8.765625 27.371094 8.5625 26.710938 8.3125 C 26.546875 8.246094 26.359375 8.210938 26.234375 8.078125 C 25.964844 7.800781 25.742188 7.480469 25.476562 7.199219 C 25.3125 7.027344 25.074219 6.964844 24.894531 6.820312 C 24.839844 6.789062 24.851562 6.710938 24.839844 6.660156 C 25.121094 6.742188 25.355469 6.933594 25.640625 7 C 26.113281 7.152344 26.621094 7.199219 27.0625 7.441406 C 27.65625 7.769531 27.90625 8.632812 28.480469 8.660156 C 28.160156 7.976562 27.707031 7.363281 27.253906 6.761719 C 27.136719 6.546875 26.242188 6.539062 24.699219 6.285156 C 24.40625 6.234375 23.914062 5.757812 23.605469 5.515625 C 23.410156 5.359375 23.148438 5.335938 22.929688 5.226562 C 22.863281 5.203125 22.839844 5.128906 22.8125 5.074219 C 23.101562 5.089844 23.367188 5.230469 23.660156 5.234375 C 24.070312 5.292969 24.488281 5.289062 24.898438 5.339844 C 25.761719 5.457031 25.992188 6.335938 26.820312 6.335938 C 26.820312 6.21875 26.730469 6.136719 26.660156 6.054688 C 26.167969 5.546875 25.679688 5.027344 25.109375 4.605469 C 24.164062 4.589844 22.53125 4.769531 22.292969 4.671875 C 21.953125 4.550781 21.644531 4.355469 21.328125 4.191406 C 21.0625 4.019531 20.730469 4.078125 20.441406 3.976562 C 20.4375 3.949219 20.429688 3.886719 20.425781 3.859375 C 22.011719 3.921875 22.144531 3.648438 22.792969 3.742188 C 23.59375 3.929688 23.960938 4.566406 24.683594 4.300781 C 24.414062 4 23.402344 3.402344 23.050781 3.207031 C 22.820312 3.167969 21.917969 3.441406 21.1875 3.125 C 20.621094 2.855469 20.277344 2.277344 19.722656 1.992188 C 19.417969 1.828125 19.0625 1.933594 18.742188 1.835938 C 18.902344 1.59375 19.234375 1.648438 19.484375 1.578125 C 22.558594 1.347656 22.820312 2.886719 23.320312 3.152344 C 23.695312 3.367188 24.0625 3.589844 24.414062 3.839844 C 24.484375 3.890625 24.558594 3.933594 24.640625 3.960938 C 24.546875 3.308594 23.570312 3.175781 23.082031 1.953125 C 22.910156 1.515625 22.636719 1.496094 22.617188 1.257812 C 22.800781 1.242188 22.917969 1.398438 23.058594 1.488281 C 23.289062 1.679688 23.597656 1.734375 23.84375 1.90625 C 24.589844 2.363281 24.757812 3.621094 24.957031 4.210938 C 25.113281 4.40625 25.351562 4.511719 25.523438 4.695312 C 25.835938 4.957031 26.121094 5.246094 26.417969 5.527344 C 26.542969 5.664062 26.660156 5.8125 26.8125 5.921875 C 26.832031 5.136719 25.742188 4.652344 25.617188 3.753906 C 25.578125 3.429688 25.523438 3.0625 25.246094 2.847656 C 25.089844 2.6875 24.832031 2.605469 24.765625 2.375 C 24.988281 2.320312 25.121094 2.515625 25.257812 2.648438 C 25.578125 2.984375 25.996094 3.214844 26.324219 3.546875 C 27.15625 4.445312 26.964844 5.640625 27.066406 6.226562 C 27.464844 6.730469 27.859375 7.234375 28.199219 7.78125 C 28.273438 7.890625 28.320312 8.027344 28.449219 8.089844 C 28.484375 7.4375 27.765625 6.941406 27.765625 5.933594 C 27.769531 5.617188 27.769531 5.296875 27.660156 4.996094 C 27.539062 4.664062 27.105469 4.390625 27.078125 4.167969 C 27.132812 4.164062 27.1875 4.160156 27.242188 4.160156 C 27.378906 4.300781 27.496094 4.457031 27.605469 4.617188 C 27.96875 5.078125 28.5 5.4375 28.664062 6.027344 C 28.816406 6.726562 28.609375 7.441406 28.636719 8.148438 C 28.585938 8.679688 28.925781 8.816406 29.578125 10.660156 C 29.601562 10.664062 29.652344 10.675781 29.675781 10.683594 C 29.714844 9.964844 29.191406 9.398438 29.441406 8.445312 C 29.488281 8.15625 29.5625 7.867188 29.519531 7.574219 C 29.425781 7.179688 29.125 6.875 29 6.492188 C 29.054688 6.492188 29.140625 6.445312 29.183594 6.503906 C 29.441406 6.824219 29.597656 7.207031 29.8125 7.554688 C 30.035156 7.960938 30.277344 8.390625 30.285156 8.871094 C 30.253906 9.636719 29.976562 10.359375 29.800781 11.101562 C 29.714844 11.457031 30.003906 11.816406 30.132812 13.160156 C 30.164062 13.167969 30.21875 13.183594 30.246094 13.191406 C 30.292969 12.695312 30.125 12.199219 30.234375 11.707031 C 30.324219 11.246094 30.636719 10.871094 30.730469 10.410156 C 30.792969 9.976562 30.511719 9.597656 30.476562 9.171875 C 30.507812 9.171875 30.578125 9.171875 30.609375 9.171875 C 30.730469 9.34375 31.304688 10.875 31.152344 11.742188 C 30.902344 12.589844 30.308594 13.398438 30.214844 13.785156 C 30.296875 14.597656 30.253906 15.414062 30.1875 16.226562 C 30.566406 16.1875 30.304688 14.960938 30.914062 14.132812 C 31.746094 12.964844 31.3125 12.925781 31.394531 12.058594 C 31.425781 12.058594 31.488281 12.066406 31.519531 12.070312 C 31.636719 12.429688 31.625 12.820312 31.65625 13.195312 C 31.71875 13.519531 31.699219 13.847656 31.703125 14.175781 C 31.726562 14.765625 31.152344 15.417969 30.71875 15.96875 C 30.210938 16.628906 30.121094 16.484375 30.0625 17.066406 C 29.980469 17.609375 29.820312 18.140625 29.699219 18.675781 C 29.949219 18.628906 30.003906 17.832031 30.359375 17.335938 C 30.59375 16.917969 31.234375 16.703125 31.398438 16.113281 C 31.464844 15.867188 31.484375 15.613281 31.566406 15.371094 C 31.605469 15.300781 31.71875 15.363281 31.699219 15.4375 C 31.65625 15.867188 31.523438 16.285156 31.488281 16.714844 C 31.242188 17.710938 31.300781 17.621094 30.703125 18.160156 C 30.375 18.460938 30.015625 18.726562 29.660156 18.996094 C 29.515625 19.097656 29.480469 19.285156 29.417969 19.441406 C 29.242188 19.960938 28.972656 20.445312 28.765625 20.949219 C 29.1875 20.925781 29.246094 19.648438 30.171875 19.378906 C 31.242188 19.027344 30.957031 18.441406 31.292969 18.265625 C 31.316406 18.375 31.304688 18.488281 31.261719 18.589844 C 30.382812 20.777344 30.15625 20.386719 28.589844 21.246094 C 28.527344 21.328125 27.980469 22.355469 27.15625 23.316406 C 27.140625 23.351562 27.117188 23.414062 27.105469 23.445312 C 27.734375 23.25 27.800781 22.460938 28.582031 22.117188 C 28.882812 21.996094 29.222656 21.960938 29.496094 21.773438 C 29.992188 21.4375 29.789062 21.515625 30.242188 20.886719 C 30.273438 20.886719 30.335938 20.886719 30.367188 20.890625 C 30.386719 21.195312 30.152344 21.425781 30.019531 21.679688 C 29.109375 23.121094 29.261719 22.851562 27.054688 23.691406 C 26.917969 23.746094 26.765625 23.773438 26.664062 23.882812 C 25.433594 25.195312 25.125 25.171875 25.078125 25.429688 C 25.796875 25.28125 26.121094 24.464844 26.832031 24.304688 C 27.199219 24.210938 27.605469 24.359375 27.960938 24.1875 C 28.152344 24.066406 28.300781 23.886719 28.480469 23.75 C 28.574219 23.691406 28.617188 23.84375 28.566406 23.90625 C 28.398438 24.179688 27.433594 25.121094 26.925781 25.34375 C 26.394531 25.597656 24.8125 25.542969 24.621094 25.683594 C 24.105469 26.058594 23.5625 26.402344 22.996094 26.691406 C 22.90625 26.738281 22.808594 26.78125 22.757812 26.871094 C 22.898438 26.875 23.042969 26.886719 23.179688 26.847656 C 23.636719 26.730469 23.921875 26.269531 24.398438 26.203125 C 24.785156 26.175781 25.179688 26.25 25.5625 26.167969 C 26.179688 26.046875 25.867188 26.167969 26.589844 25.710938 C 26.613281 25.726562 26.660156 25.753906 26.683594 25.769531 C 26.601562 26.023438 26.347656 26.15625 26.144531 26.300781 C 25.617188 26.671875 25.066406 27.109375 24.394531 27.132812 C 22.34375 27.019531 22.390625 26.976562 22.191406 27.089844 C 21.722656 27.308594 21.234375 27.492188 20.742188 27.652344 C 20.59375 27.699219 20.441406 27.738281 20.300781 27.8125 C 20.714844 28.105469 21.359375 27.660156 21.757812 27.527344 C 22.003906 27.449219 22.246094 27.582031 22.480469 27.636719 C 22.816406 27.734375 23.167969 27.703125 23.511719 27.695312 C 23.828125 27.707031 24.078125 27.476562 24.371094 27.402344 C 24.390625 27.421875 24.421875 27.460938 24.4375 27.480469 C 24.25 27.695312 23.976562 27.800781 23.71875 27.902344 C 23.105469 28.144531 22.480469 28.421875 21.808594 28.414062 C 20.519531 28.253906 20.175781 27.980469 19.894531 27.902344 C 18.121094 28.363281 17.886719 28.136719 17.695312 28.347656 C 17.886719 28.410156 18.089844 28.496094 18.296875 28.441406 C 18.609375 28.394531 18.9375 28.261719 19.25 28.375 C 19.421875 28.433594 19.558594 28.554688 19.722656 28.625 C 20.070312 28.792969 20.738281 28.910156 21.546875 28.75 C 21.5625 28.773438 21.589844 28.816406 21.605469 28.839844 C 21.386719 29.027344 21.082031 29.027344 20.8125 29.070312 C 18.964844 29.410156 18.921875 29.238281 18.289062 28.945312 C 17.941406 28.773438 17.605469 28.574219 17.304688 28.335938 C 17.179688 28.3125 17.050781 28.328125 16.921875 28.335938 C 17.027344 28.480469 17.207031 28.542969 17.34375 28.65625 C 18.78125 29.746094 18.746094 30.441406 20.058594 30.449219 C 19.449219 30.664062 18.800781 30.769531 18.15625 30.734375 C 17.800781 29.050781 16.804688 28.332031 16.453125 28.378906 C 15.585938 28.640625 15.054688 29.816406 14.84375 30.742188 C 14.199219 30.757812 13.546875 30.667969 12.9375 30.445312 C 14.304688 30.425781 14.289062 29.671875 15.738281 28.601562 C 15.84375 28.515625 15.996094 28.472656 16.050781 28.332031 C 15.910156 28.339844 15.742188 28.277344 15.628906 28.386719 C 15.277344 28.660156 14.882812 28.875 14.480469 29.0625 C 13.867188 29.394531 13.144531 29.234375 12.492188 29.128906 C 12.152344 29.027344 11.773438 29.070312 11.453125 28.890625 C 11.441406 28.84375 11.429688 28.796875 11.421875 28.75 C 11.691406 28.773438 11.957031 28.863281 12.234375 28.839844 C 12.523438 28.800781 12.824219 28.800781 13.101562 28.703125 C 13.417969 28.613281 13.664062 28.335938 14.007812 28.324219 C 14.28125 28.335938 14.546875 28.425781 14.820312 28.457031 C 14.980469 28.476562 15.128906 28.410156 15.277344 28.367188 C 15.28125 28.34375 15.285156 28.304688 15.289062 28.28125 C 14.550781 28.199219 13.816406 28.085938 13.097656 27.898438 C 12.527344 28.175781 11.902344 28.320312 11.277344 28.410156 C 10.546875 28.445312 9.867188 28.121094 9.199219 27.875 C 9 27.785156 8.789062 27.703125 8.632812 27.539062 C 8.574219 27.488281 8.597656 27.363281 8.691406 27.421875 C 9.175781 27.59375 9.117188 27.769531 10.3125 27.6875 C 10.640625 27.65625 10.953125 27.425781 11.285156 27.542969 C 11.808594 27.695312 11.957031 28 12.617188 27.875 C 12.632812 27.847656 12.664062 27.800781 12.675781 27.777344 C 12.035156 27.597656 11.40625 27.367188 10.804688 27.085938 C 10.628906 26.984375 10.425781 27.027344 10.234375 27.035156 C 9.796875 27.089844 9.359375 27.058594 8.925781 27.117188 C 8.648438 27.152344 8.371094 27.128906 8.105469 27.042969 C 7.574219 26.859375 6.542969 26.109375 6.375 25.90625 C 6.34375 25.847656 6.339844 25.707031 6.433594 25.71875 C 6.734375 25.90625 6.957031 26.289062 8.402344 26.199219 C 9.144531 26.128906 9.453125 27.011719 10.25 26.867188 C 10.203125 26.8125 10.148438 26.769531 10.085938 26.738281 C 9.496094 26.421875 8.917969 26.074219 8.375 25.679688 C 8.011719 25.566406 7.625 25.601562 7.253906 25.539062 C 6.304688 25.480469 5.996094 25.453125 5.214844 24.710938 C 4.9375 24.441406 4.613281 24.203125 4.414062 23.863281 C 4.425781 23.824219 4.449219 23.753906 4.460938 23.71875 C 4.695312 23.839844 4.839844 24.074219 5.070312 24.199219 C 5.464844 24.367188 5.914062 24.183594 6.3125 24.34375 C 6.941406 24.566406 7.257812 25.320312 7.945312 25.414062 C 7.910156 25.347656 7.867188 25.285156 7.804688 25.238281 C 7.292969 24.828125 6.808594 24.378906 6.363281 23.894531 C 6.179688 23.667969 4.28125 23.230469 3.792969 22.769531 C 3.359375 22.351562 3.066406 21.820312 2.765625 21.304688 C 2.683594 21.160156 2.558594 20.972656 2.710938 20.832031 C 3.058594 21.199219 2.992188 21.488281 3.589844 21.824219 C 3.90625 22.003906 4.289062 22.015625 4.601562 22.207031 C 5.15625 22.515625 5.390625 23.367188 5.949219 23.457031 C 5.832031 23.269531 5.675781 23.113281 5.542969 22.941406 C 3.671875 20.445312 5.316406 21.8125 2.960938 20.519531 C 2.519531 20.269531 2.234375 19.660156 1.925781 19.019531 C 1.828125 18.777344 1.660156 18.539062 1.726562 18.261719 C 1.964844 18.457031 1.960938 18.824219 2.199219 19.023438 C 2.46875 19.332031 2.917969 19.332031 3.230469 19.582031 C 3.757812 19.980469 3.84375 20.835938 4.25 20.992188 C 4.238281 20.921875 4.21875 20.851562 4.183594 20.789062 C 3.449219 19.3125 3.554688 19.132812 3.386719 19.03125 C 1.707031 17.765625 1.703125 17.632812 1.539062 16.8125 C 1.421875 15.914062 1.273438 15.628906 1.328125 15.34375 C 1.355469 15.34375 1.414062 15.34375 1.445312 15.34375 C 1.546875 15.714844 1.535156 16.132812 1.785156 16.449219 C 2.035156 16.808594 2.457031 17 2.683594 17.375 C 3.074219 18.007812 3.035156 18.605469 3.304688 18.636719 C 3.152344 18.039062 2.980469 17.445312 2.910156 16.828125 C 2.882812 16.492188 2.160156 15.988281 1.476562 14.839844 C 1.21875 14.339844 1.300781 13.757812 1.347656 13.222656 C 1.417969 12.839844 1.332031 12.425781 1.5 12.066406 C 1.53125 12.0625 1.59375 12.0625 1.628906 12.0625 C 1.652344 12.414062 1.554688 12.761719 1.582031 13.109375 C 1.742188 13.957031 2.359375 14.105469 2.5 15.230469 C 2.5625 15.617188 2.578125 16.175781 2.816406 16.179688 C 2.78125 15.527344 2.703125 14.875 2.765625 14.21875 C 2.761719 14.007812 2.84375 13.773438 2.726562 13.578125 C 1.878906 11.960938 1.585938 11.679688 2.011719 10.28125 C 2.117188 9.941406 2.183594 9.585938 2.347656 9.269531 C 2.382812 9.195312 2.457031 9.160156 2.519531 9.117188 C 2.546875 9.515625 2.265625 9.867188 2.265625 10.261719 C 2.304688 10.792969 2.683594 11.210938 2.777344 11.726562 C 2.863281 12.722656 2.632812 12.929688 2.804688 13.207031 C 2.945312 13.03125 2.808594 13.003906 3.195312 11.464844 C 3.269531 11.097656 3.105469 10.746094 3.015625 10.402344 C 2.585938 8.625 2.574219 8.671875 3.398438 7.199219 C 3.539062 6.960938 3.648438 6.695312 3.839844 6.488281 C 3.890625 6.476562 3.941406 6.46875 3.996094 6.464844 C 3.910156 6.90625 3.511719 7.21875 3.476562 7.671875 C 3.453125 8.171875 3.683594 8.65625 3.617188 9.160156 C 3.597656 9.683594 3.289062 10.160156 3.347656 10.695312 C 3.371094 10.691406 3.414062 10.683594 3.4375 10.679688 C 3.636719 10.003906 3.945312 9.363281 4.253906 8.726562 C 4.480469 8.265625 4.292969 7.207031 4.300781 6.796875 C 4.316406 6.03125 4.160156 5.898438 5.191406 4.863281 C 5.402344 4.65625 5.535156 4.378906 5.757812 4.183594 C 5.808594 4.164062 5.859375 4.152344 5.910156 4.148438 C 5.898438 4.222656 5.90625 4.308594 5.839844 4.363281 C 5.195312 5.054688 5.308594 4.960938 5.230469 5.980469 C 5.261719 6.828125 4.546875 7.464844 4.554688 8.070312 C 4.753906 8.027344 4.574219 7.957031 5.929688 6.25 C 6.03125 5.835938 5.894531 4.847656 6.359375 3.964844 C 6.589844 3.566406 6.96875 3.289062 7.328125 3.015625 C 7.570312 2.847656 7.753906 2.613281 7.984375 2.425781 C 8.042969 2.371094 8.125 2.371094 8.199219 2.351562 C 8.199219 2.386719 8.199219 2.457031 8.199219 2.492188 C 8.007812 2.675781 7.769531 2.804688 7.609375 3.011719 C 7.351562 3.371094 7.457031 3.851562 7.234375 4.222656 C 6.890625 4.839844 6.222656 5.257812 6.195312 5.902344 C 6.351562 5.816406 6.457031 5.664062 6.582031 5.539062 C 6.832031 5.292969 7.074219 5.039062 7.347656 4.816406 C 7.558594 4.605469 7.816406 4.453125 8.019531 4.238281 C 8.253906 3.835938 8.292969 2.351562 9.300781 1.824219 C 9.519531 1.703125 9.769531 1.640625 9.964844 1.480469 Z M 9.964844 1.480469 "/>
<path style=" stroke:none;fill-rule:nonzero;fill:rgb(0%,0%,0%);fill-opacity:1;" d="M 16.226562 4.980469 C 16.40625 4.964844 16.585938 4.972656 16.769531 4.984375 C 16.820312 5.480469 16.765625 5.980469 16.796875 6.480469 C 17.121094 6.152344 17.324219 5.71875 17.652344 5.394531 C 17.621094 8.972656 17.703125 8.984375 17.609375 9.128906 C 17.339844 9.5 17.050781 9.855469 16.800781 10.234375 C 16.78125 10.472656 16.777344 10.71875 16.808594 10.957031 C 17.796875 10.050781 18.632812 10.335938 20.394531 10.125 C 21.113281 10.011719 21.871094 9.851562 22.433594 9.355469 C 22.621094 9.195312 22.707031 8.953125 22.761719 8.71875 C 22.976562 8.46875 23.402344 8.421875 23.652344 8.648438 C 23.828125 8.871094 23.816406 9.203125 23.65625 9.429688 C 23.535156 9.574219 23.351562 9.632812 23.199219 9.730469 C 23.238281 9.832031 26.648438 17.558594 26.875 17.75 C 24.710938 19.984375 21.203125 19.824219 19.261719 17.742188 C 19.492188 17.652344 19.167969 18.238281 22.75 10.292969 C 22.816406 10.144531 22.890625 9.996094 22.9375 9.839844 C 21.003906 10.3125 17.585938 10.539062 16.8125 12.332031 C 16.78125 12.414062 16.773438 23.289062 16.804688 23.574219 C 17.050781 23.4375 17.300781 23.304688 17.554688 23.183594 C 17.261719 23.921875 16.898438 24.632812 16.585938 25.363281 C 16.554688 25.40625 16.550781 25.527344 16.476562 25.480469 C 16.132812 24.710938 15.78125 23.949219 15.4375 23.179688 C 15.707031 23.289062 15.949219 23.464844 16.222656 23.570312 C 16.226562 21.867188 16.230469 13.082031 16.222656 12.390625 C 15.503906 10.527344 11.785156 10.269531 10.074219 9.839844 C 10.109375 9.980469 9.902344 9.503906 13.523438 17.539062 C 13.554688 17.644531 13.636719 17.710938 13.730469 17.757812 C 11.753906 19.894531 8.136719 19.90625 6.148438 17.75 C 6.332031 17.582031 9.695312 10.015625 9.804688 9.730469 C 9.65625 9.640625 9.488281 9.570312 9.363281 9.449219 C 8.933594 8.863281 9.527344 8.15625 10.222656 8.675781 C 10.34375 8.933594 10.261719 9.425781 11.488281 9.867188 C 13.34375 10.511719 14.863281 9.859375 15.984375 10.785156 C 16.0625 10.847656 16.136719 10.910156 16.21875 10.960938 C 16.226562 10.730469 16.230469 10.5 16.222656 10.269531 C 15.96875 9.855469 15.644531 9.488281 15.378906 9.085938 C 15.359375 8.957031 15.367188 5.410156 15.367188 5.394531 C 15.789062 5.886719 16.035156 6.347656 16.21875 6.480469 C 16.234375 5.980469 16.222656 5.480469 16.226562 4.980469 M 16.378906 5.292969 C 16.398438 5.53125 16.332031 5.785156 16.425781 6.011719 C 16.648438 5.914062 16.621094 6.21875 16.617188 5.273438 C 16.539062 5.28125 16.457031 5.285156 16.378906 5.292969 M 16.859375 6.828125 C 16.742188 6.957031 16.78125 7.148438 16.769531 7.304688 C 16.792969 7.300781 16.839844 7.285156 16.863281 7.277344 C 17.035156 7.074219 17.179688 6.847656 17.34375 6.640625 C 17.476562 6.488281 17.417969 6.277344 17.417969 6.09375 C 17.214844 6.324219 17.050781 6.585938 16.859375 6.828125 M 15.566406 6.128906 C 15.566406 6.253906 15.5625 6.382812 15.570312 6.507812 C 15.691406 6.71875 15.855469 6.898438 15.996094 7.097656 C 16.058594 7.1875 16.105469 7.308594 16.230469 7.316406 C 16.226562 7.179688 16.25 7.035156 16.210938 6.902344 C 16.097656 6.726562 15.957031 6.574219 15.839844 6.398438 C 15.765625 6.292969 15.707031 6.15625 15.566406 6.128906 M 17.179688 7.25 C 17.046875 7.441406 16.890625 7.613281 16.773438 7.8125 C 16.757812 7.921875 16.761719 8.035156 16.761719 8.148438 C 16.789062 8.140625 16.835938 8.117188 16.863281 8.105469 C 17.578125 7.117188 17.414062 7.460938 17.429688 6.972656 C 17.308594 7.027344 17.253906 7.152344 17.179688 7.25 M 15.566406 6.984375 C 15.566406 7.09375 15.550781 7.210938 15.578125 7.320312 C 15.675781 7.492188 15.8125 7.636719 15.925781 7.800781 C 16.015625 7.921875 16.089844 8.066406 16.226562 8.144531 C 16.230469 8.03125 16.234375 7.921875 16.222656 7.808594 C 16.066406 7.53125 15.851562 7.289062 15.664062 7.035156 C 15.640625 7.023438 15.589844 6.996094 15.566406 6.984375 M 15.570312 7.785156 C 15.5625 7.90625 15.558594 8.027344 15.570312 8.144531 C 15.679688 8.3125 15.8125 8.460938 15.917969 8.628906 C 16 8.738281 16.070312 8.886719 16.222656 8.90625 C 16.21875 8.800781 16.242188 8.691406 16.21875 8.585938 C 15.722656 7.875 15.679688 7.835938 15.570312 7.785156 M 17.09375 8.179688 C 17 8.320312 16.886719 8.453125 16.792969 8.59375 C 16.78125 8.710938 16.789062 8.824219 16.789062 8.9375 C 16.84375 8.910156 16.902344 8.882812 16.933594 8.824219 C 17.089844 8.59375 17.277344 8.382812 17.429688 8.148438 C 17.441406 8.019531 17.433594 7.894531 17.421875 7.765625 C 17.277344 7.871094 17.199219 8.035156 17.09375 8.179688 M 17.097656 9 C 16.988281 9.152344 16.863281 9.289062 16.773438 9.453125 C 16.753906 9.554688 16.785156 9.660156 16.792969 9.761719 C 17.023438 9.605469 17.136719 9.328125 17.320312 9.125 C 17.464844 8.988281 17.433594 8.785156 17.421875 8.609375 C 17.28125 8.707031 17.203125 8.867188 17.097656 9 M 15.5625 8.636719 C 15.566406 8.746094 15.554688 8.851562 15.574219 8.960938 C 15.671875 9.121094 15.796875 9.261719 15.898438 9.417969 C 16 9.546875 16.078125 9.703125 16.226562 9.78125 C 16.203125 9.28125 16.386719 9.664062 15.746094 8.761719 C 15.703125 8.695312 15.636719 8.652344 15.5625 8.636719 M 6.609375 17.238281 C 6.542969 17.394531 6.453125 17.542969 6.425781 17.710938 C 8.753906 17.71875 11.085938 17.714844 13.414062 17.710938 C 13.296875 17.378906 10.011719 10.082031 9.898438 9.957031 C 8.792969 12.378906 7.707031 14.8125 6.609375 17.238281 M 23.0625 9.984375 C 19.433594 18.03125 19.628906 17.554688 19.605469 17.714844 C 21.933594 17.71875 24.265625 17.714844 26.59375 17.710938 C 26.539062 17.519531 24.574219 13.207031 23.179688 10.097656 C 23.15625 10.042969 23.132812 9.972656 23.0625 9.984375 Z M 23.0625 9.984375 "/>
</g>
</svg>
